<svg xmlns="http://www.w3.org/2000/svg" viewBox="0 0 431.41 25.93"><defs><style>.cls-1{fill:none;}.cls-1,.cls-2{stroke:#000;stroke-miterlimit:24;stroke-width:0.5px;}.cls-2{fill:#fff;}</style></defs><title>Asset 4</title><g id="Layer_2" data-name="Layer 2"><g id="Layer_1-2" data-name="Layer 1"><path class="cls-1" d="M264.86,13.31a46.68,46.68,0,0,1,13.81-.47,62.58,62.58,0,0,0,13.13,0c-2.48.65-6.35-1.72-10.94,0-5,1.85-10.32,1.87-15.71.89"/><path class="cls-1" d="M230.37,1.17C222-1.17,216.07.35,215.15,12.84c-.16,2.17-.23-3.62.17,0-1.8-2.18-3.14,2.2-4.11,0-11.55-26.1,21.85,3.77,25.46,0-12.13-13.54-31.16,31.92-29.21,0,.18-2.84.51,2.69,1,0,0,2.46.1-5.35,1.2,0,2.22,10.68,7.48,13.47,14.72,12.73"/><path class="cls-1" d="M168,13.31a46.68,46.68,0,0,0-13.81-.47,62.58,62.58,0,0,1-13.13,0c2.48.65,6.35-1.72,11,0,5,1.85,10.31,1.87,15.7.89"/><path class="cls-1" d="M202.47,1.17c8.41-2.34,14.3-.82,15.22,11.67.17,2.17.23-3.62-.17,0,1.81-2.18,3.14,2.2,4.11,0,11.56-26.1-21.85,3.77-25.46,0,12.14-13.54,31.16,31.92,29.21,0-.17-2.84-.51,2.69-1,0,0,2.46-.09-5.35-1.2,0-2.21,10.68-7.48,13.47-14.71,12.73"/><circle class="cls-2" cx="252.07" cy="12.96" r="2.51"/><circle class="cls-2" cx="183.28" cy="12.96" r="2.51"/><line class="cls-1" x1="122.59" y1="12.96" y2="12.96"/><line class="cls-1" x1="431.41" y1="12.96" x2="308.81" y2="12.96"/></g></g></svg>